<?xml version="1.0" encoding="utf-8"?>
<!-- Generator: Adobe Illustrator 24.1.2, SVG Export Plug-In . SVG Version: 6.00 Build 0)  -->
<svg version="1.1" id="Camada_1" xmlns="http://www.w3.org/2000/svg" xmlns:xlink="http://www.w3.org/1999/xlink" x="0px" y="0px"
	 viewBox="0 0 496 512" style="enable-background:new 0 0 496 512;" xml:space="preserve">
<g>
	<path d="M323.6,504c-49.7,0-99.5,0-149.2,0c-3-0.3-6.1-0.7-9.1-0.8c-19.8-0.5-39.7-1.3-59.1-6c-40.8-10-71.1-33.2-89.2-71.4
		c-11.2-23.6-14.6-49-14.9-74.9c-0.6-53.7-1.2-107.5-0.7-161.2c0.2-22.5,1.5-45.2,4.8-67.5c5.2-34.7,21.9-63.5,50.3-84.7
		c24.3-18.2,52.5-25.5,82.2-27.6c11.9-0.8,23.8-1.3,35.7-2c49.4,0,98.8,0,148.2,0c11.6,0.6,23.1,1.2,34.7,1.9
		c20.3,1.2,40.1,4.7,58.7,13c45.6,20.5,69.6,57,77.1,105.5c1.3,8.6,2,17.2,2.9,25.8c0,66.5,0,133,0,199.6c-0.3,1.7-0.6,3.5-0.8,5.2
		c-1,9.8-1.5,19.6-3.2,29.3c-5.3,31.1-18.6,58.1-42.5,79.3c-25.9,23-57.1,32.1-90.8,34.4C347,502.8,335.3,503.4,323.6,504z
		 M249.1,460.2c0-0.3,0-0.5,0-0.8c13.1,0,26.2,0.4,39.2-0.1c28-1,56.3-0.7,84.1-4.1c36.6-4.5,61.7-25.2,72.8-61.2
		c5.1-16.5,6-33.7,6.2-50.8c0.5-43.9,1.1-87.8,0.7-131.7c-0.2-26.1-0.9-52.4-3.9-78.3c-4.6-39.8-29.8-66.9-69.1-74.7
		c-17.1-3.4-34.9-4.4-52.4-4.7c-43.3-0.7-86.5-0.6-129.8-0.4c-24.8,0.1-49.7-0.2-74.4,4.1C85,64.1,59.2,87.9,51.5,125.3
		c-3.3,16.2-4.4,32.9-4.8,49.5c-0.8,39.9-1.2,79.8-0.7,119.6c0.3,27.9,1.1,55.9,3.7,83.6c2.4,25.8,14.2,47.4,36.1,62.5
		c16.9,11.6,36.2,16.1,56.3,16.8C177.7,458.7,213.4,459.3,249.1,460.2z"/>
	<path d="M249.2,383.5c-70.2,0.3-127.4-56.8-127.7-127.3c-0.3-70.1,57-127.5,127.4-127.5c70.3,0,126.9,56.4,127.4,127
		C376.8,325.7,319.6,383.2,249.2,383.5z M166.4,255.9c-0.1,45.7,36.6,82.5,82.3,82.7c45.8,0.1,82.6-36.5,82.8-82.2
		c0.2-45.9-36.6-82.9-82.6-82.9C203.2,173.5,166.4,210.2,166.4,255.9z"/>
	<path d="M411,123.5c0.1,16.4-13,29.7-29.3,29.8c-16.5,0.1-30-13.1-30.1-29.6c0-16.4,13-29.6,29.3-29.8
		C397.7,93.8,410.9,106.8,411,123.5z"/>
</g>
</svg>
